# xmcd
#
# Track frame offsets:
#	150
#	14413
#	31315
#	48042
#	62886
#	82720
#	100576
#	118940
#	137459
#	152707
#	170512
#	186712
#	206319
#	224054
#
# Disc length: 3264 seconds
#
# Revision: 1
# Processed by: cddbd v1.5.2PL0 Copyright (c) Steve Scherf et al.
# Submitted via: audiograbber 1.83.01
#
DISCID=bd0cbe0e
DTITLE=Johnny Hansen (Kandis) - My FavoritwnCuntry Songs
DYEAR=2015
DGENRE=Country
TTITLE0=Country Road
TTITLE1=Forever And Ever Amen
TTITLE2=Together Again
TTITLE3=Ring Of Fire
TTITLE4=Friends In Low Places
TTITLE5=Chattahoochee
TTITLE6=Blue Bayou
TTITLE7=Garden Party
TTITLE8=Let Your Love Flow
TTITLE9=Look At Us
TTITLE10=Reckless Heart
TTITLE11=I Love You Period
TTITLE12=Seven Spanish Angles
TTITLE13=Den Største Bangebuks I Byen
EXTD=
EXTT0=
EXTT1=
EXTT2=
EXTT3=
EXTT4=
EXTT5=
EXTT6=
EXTT7=
EXTT8=
EXTT9=
EXTT10=
EXTT11=
EXTT12=
EXTT13=
PLAYORDER=
